<svg xmlns="http://www.w3.org/2000/svg" viewBox="0 0 800 500" role="img" aria-labelledby="title desc">
  <title id="title">לפני ניקיון בחדר שינה</title>
  <desc id="desc">איור של חדר שינה מבולגן לפני ניקיון.</desc>
  <rect width="800" height="500" fill="#f2e9df"/>
  <rect y="356" width="800" height="144" fill="#d6af89"/>
  <rect x="170" y="170" width="430" height="136" rx="28" fill="#f6f1ea" stroke="#dccdbd"/>
  <rect x="192" y="142" width="148" height="58" rx="22" fill="#d5baa0"/>
  <rect x="354" y="142" width="148" height="58" rx="22" fill="#d5baa0"/>
  <rect x="188" y="198" width="394" height="94" rx="24" fill="#f8f4ee"/>
  <path d="M226 242c34 28 66 34 110 24 40-8 78-6 126 14 48 20 96 18 136 4" fill="none" stroke="#d8c5b2" stroke-width="18" stroke-linecap="round"/>
  <rect x="610" y="188" width="82" height="118" rx="18" fill="#9ab395"/>
  <rect x="118" y="210" width="78" height="96" rx="18" fill="#eadccb"/>
  <rect x="126" y="326" width="88" height="32" rx="12" fill="#b97b66"/>
  <circle cx="166" cy="342" r="10" fill="#f8f2ea"/>
  <rect x="506" y="318" width="58" height="46" rx="10" fill="#8c6c58"/>
  <path d="M642 124c22-10 40 2 40 24h-50c0-10 0-18 10-24Z" fill="#f0ddc5"/>
  <circle cx="118" cy="86" r="70" fill="#e5d0bc" opacity="0.54"/>
  <circle cx="700" cy="96" r="56" fill="#d3dfcf" opacity="0.48"/>
</svg>
