<svg xmlns="http://www.w3.org/2000/svg" viewBox="0 0 800 500" role="img" aria-labelledby="title desc">
  <title id="title">לפני ניקיון בסלון</title>
  <desc id="desc">איור של סלון מבולגן לפני ניקיון.</desc>
  <rect width="800" height="500" fill="#efe7dd"/>
  <rect y="350" width="800" height="150" fill="#ccb195"/>
  <circle cx="120" cy="80" r="72" fill="#d9c3ae" opacity="0.55"/>
  <rect x="116" y="92" width="154" height="140" rx="18" fill="#f6f0e8" stroke="#d6c3ae"/>
  <rect x="136" y="112" width="114" height="100" rx="10" fill="#d9e3dd"/>
  <path d="M192 112v100M136 162h114" stroke="#fefcf8" stroke-width="8" opacity="0.85"/>
  <rect x="276" y="236" width="274" height="92" rx="32" fill="#8d6d5a"/>
  <rect x="298" y="210" width="110" height="42" rx="21" fill="#a58471"/>
  <rect x="418" y="210" width="110" height="42" rx="21" fill="#a58471"/>
  <rect x="332" y="284" width="156" height="24" rx="12" fill="#d8c5b2"/>
  <rect x="248" y="360" width="92" height="54" rx="12" fill="#b98d66"/>
  <circle cx="318" cy="384" r="16" fill="#f7efe6"/>
  <rect x="478" y="360" width="104" height="42" rx="12" fill="#b97979"/>
  <rect x="602" y="264" width="42" height="104" rx="12" fill="#7d947a"/>
  <path d="M620 244c30-18 60 2 58 36-28 8-50-2-58-36Z" fill="#9bb593"/>
  <path d="M266 168c28 10 40 36 34 62-32-8-50-26-34-62Z" fill="#b89c85" opacity="0.9"/>
  <path d="M534 164c34 10 52 44 40 74-38-10-56-30-40-74Z" fill="#c7ae97" opacity="0.9"/>
  <path d="M208 414c50 12 144 10 192-10" stroke="#e8dacc" stroke-width="10" stroke-linecap="round" opacity="0.8"/>
</svg>
