<svg xmlns="http://www.w3.org/2000/svg" viewBox="0 0 800 500" role="img" aria-labelledby="title desc">
  <title id="title">לפני ניקיון חלונות ורצפה</title>
  <desc id="desc">איור של חלון ורצפה לפני ניקיון.</desc>
  <rect width="800" height="500" fill="#f2e8de"/>
  <rect y="350" width="800" height="150" fill="#d5b08e"/>
  <rect x="168" y="72" width="464" height="254" rx="28" fill="#f7f2eb" stroke="#d8c6b3" stroke-width="4"/>
  <rect x="200" y="104" width="400" height="190" rx="18" fill="#c5d5d2"/>
  <path d="M400 104v190M200 199h400" stroke="#f4efe8" stroke-width="10" opacity="0.9"/>
  <path d="M254 128c20 14 26 30 20 50-18-2-30-18-20-50Z" fill="#bfa58d" opacity="0.85"/>
  <path d="M484 196c26 18 30 38 18 60-24-4-36-20-18-60Z" fill="#bfa58d" opacity="0.8"/>
  <path d="M318 238c32 12 42 30 34 52-28 0-42-14-34-52Z" fill="#d0b59c" opacity="0.9"/>
  <path d="M228 382h182" stroke="#b68861" stroke-width="12" stroke-linecap="round"/>
  <path d="M430 406h162" stroke="#c89f7c" stroke-width="10" stroke-linecap="round"/>
  <path d="M132 82c-38 20-60 60-66 126" fill="none" stroke="#e8dbcd" stroke-width="26" stroke-linecap="round"/>
  <path d="M668 82c38 20 60 60 66 126" fill="none" stroke="#e8dbcd" stroke-width="26" stroke-linecap="round"/>
</svg>
