<svg xmlns="http://www.w3.org/2000/svg" viewBox="0 0 1200 900" role="img" aria-labelledby="title desc">
  <title id="title">Clean and peaceful home</title>
  <desc id="desc">Warm illustration of a bright, clean living room with sunlight, sofa, plants and tidy details.</desc>
  <defs>
    <linearGradient id="bg" x1="0" x2="1" y1="0" y2="1">
      <stop offset="0%" stop-color="#fbf4eb"/>
      <stop offset="100%" stop-color="#f0e1d0"/>
    </linearGradient>
    <linearGradient id="sunlight" x1="0" x2="1" y1="0" y2="1">
      <stop offset="0%" stop-color="#fff3d5" stop-opacity="0.95"/>
      <stop offset="100%" stop-color="#fff3d5" stop-opacity="0"/>
    </linearGradient>
    <linearGradient id="wall" x1="0" x2="0" y1="0" y2="1">
      <stop offset="0%" stop-color="#fcf8f3"/>
      <stop offset="100%" stop-color="#f7ecdf"/>
    </linearGradient>
    <filter id="shadow" x="-20%" y="-20%" width="140%" height="160%">
      <feDropShadow dx="0" dy="16" stdDeviation="22" flood-color="#9d7558" flood-opacity="0.12"/>
    </filter>
  </defs>
  <rect width="1200" height="900" fill="url(#bg)"/>
  <circle cx="925" cy="135" r="180" fill="#fff8e8" opacity="0.9"/>
  <path d="M760 0h440v370L760 180Z" fill="url(#sunlight)" opacity="0.95"/>
  <rect x="82" y="88" width="1036" height="612" rx="38" fill="url(#wall)" filter="url(#shadow)"/>
  <rect x="132" y="132" width="358" height="252" rx="24" fill="#fbf7f1" stroke="#e8d7c7" stroke-width="6"/>
  <rect x="160" y="160" width="145" height="196" rx="18" fill="#cfe0de"/>
  <rect x="318" y="160" width="145" height="196" rx="18" fill="#d9e7e2"/>
  <path d="M132 132h358v252l-58-58H190l-58 58Z" fill="none" stroke="#e8d7c7" stroke-width="6"/>
  <rect x="580" y="438" width="354" height="154" rx="44" fill="#efe2d4"/>
  <rect x="548" y="474" width="420" height="106" rx="34" fill="#f8eee3" stroke="#e2cdb9" stroke-width="4"/>
  <rect x="596" y="387" width="144" height="108" rx="26" fill="#f6eadc" stroke="#e2cdb9" stroke-width="4"/>
  <rect x="768" y="387" width="144" height="108" rx="26" fill="#f6eadc" stroke="#e2cdb9" stroke-width="4"/>
  <rect x="522" y="566" width="42" height="122" rx="20" fill="#d7b79e"/>
  <rect x="950" y="566" width="42" height="122" rx="20" fill="#d7b79e"/>
  <rect x="382" y="574" width="232" height="72" rx="36" fill="#f0d7c0" filter="url(#shadow)"/>
  <rect x="420" y="535" width="154" height="54" rx="27" fill="#fffaf5" stroke="#e7d6c4" stroke-width="4"/>
  <rect x="448" y="646" width="20" height="84" rx="10" fill="#c9a78d"/>
  <rect x="526" y="646" width="20" height="84" rx="10" fill="#c9a78d"/>
  <ellipse cx="588" cy="747" rx="298" ry="84" fill="#ead6c1"/>
  <path d="M198 701c48-95 107-141 177-136 76 4 131 54 167 152-52 22-114 33-188 33-67 0-119-16-156-49Z" fill="#d5b396" opacity="0.3"/>
  <rect x="868" y="544" width="108" height="145" rx="22" fill="#f7efe5"/>
  <path d="M922 530c38 0 69 32 69 71v87h-34v-86c0-19-15-34-35-34s-34 15-34 34v86h-34v-87c0-39 31-71 68-71Z" fill="#5e8d77"/>
  <path d="M924 534c-12 13-19 33-19 56 0 26 9 47 19 58 11-11 19-32 19-58 0-23-8-43-19-56Z" fill="#7fb092"/>
  <circle cx="256" cy="620" r="18" fill="#fff8ee"/>
  <circle cx="210" cy="588" r="10" fill="#fff8ee"/>
  <circle cx="304" cy="570" r="12" fill="#fff8ee"/>
  <path d="M1012 246l12 28 28 12-28 12-12 28-12-28-28-12 28-12Z" fill="#fff6df" opacity="0.95"/>
  <path d="M334 242l8 18 18 8-18 8-8 18-8-18-18-8 18-8Z" fill="#fff8e8" opacity="0.8"/>
</svg>
