<svg width="1400" height="900" viewBox="0 0 1400 900" fill="none" xmlns="http://www.w3.org/2000/svg">
  <g fill="#102D60">
    <path d="M700 92C557.512 92 442 207.512 442 350C442 492.488 557.512 608 700 608C842.488 608 958 492.488 958 350C958 207.512 842.488 92 700 92ZM700 128C822.606 128 922 227.394 922 350C922 472.606 822.606 572 700 572C577.394 572 478 472.606 478 350C478 227.394 577.394 128 700 128Z"/>
    <path d="M502 243H592L646 358L699 258L738 331L796 243H885L760 472L701 372L644 472L502 243Z"/>
    <path d="M700 289L668 347C652 376 648 404 658 430C668 456 688 472 716 477C732 480 747 478 760 471C739 501 702 518 665 511C612 501 579 455 589 402C592 385 599 369 608 354L661 259L700 289Z"/>
    <path d="M756 190C749 221 725 239 699 239C722 244 744 260 752 291C761 261 781 244 807 239C779 235 762 220 756 190Z" fill="url(#sparkle)"/>
    <path d="M403 691H445V777H577V814H403V691Z"/>
    <path d="M607 691H649V814H607V691Z"/>
    <path d="M697 691H740L786 778L833 691H875L805 814H767L697 691Z"/>
    <path d="M894 752C894 716 922 688 960 688C997 688 1026 716 1026 752C1026 789 997 817 960 817C922 817 894 789 894 752ZM936 752C936 768 947 780 960 780C972 780 984 768 984 752C984 739 972 725 960 725C947 725 936 739 936 752Z"/>
    <path d="M1051 691H1093V777H1189V814H1051V691Z"/>
    <path d="M1216 691H1309V726H1258V741H1301V776H1258V814H1216V691Z"/>
    <path d="M469 842H492V892H571V912H469V842Z"/>
    <path d="M591 842H614V912H591V842Z"/>
    <path d="M643 842H692C712 842 724 853 724 871C724 882 718 891 708 896L728 912H697L682 899H666V912H643V842ZM686 880C694 880 700 876 700 870C700 864 694 860 686 860H666V880H686Z"/>
    <path d="M744 842H811V861H767V869H806V888H767V912H744V842Z"/>
    <path d="M829 842H852V912H829V842Z"/>
    <path d="M879 877C879 855 897 839 921 839C939 839 951 846 959 859L940 869C936 863 930 860 923 860C911 860 902 868 902 877C902 887 911 894 923 894C930 894 936 891 940 885L959 895C951 907 939 914 921 914C897 914 879 899 879 877Z"/>
    <path d="M978 842H1047V861H1001V869H1041V888H1001V893H1047V912H978V842Z"/>
    <path d="M1066 842H1100L1140 884V842H1163V912H1131L1089 868V912H1066V842Z"/>
    <path d="M1184 842H1219L1258 884V842H1281V912H1249L1207 868V912H1184V842Z"/>
    <path d="M1299 842H1368V861H1322V869H1362V888H1322V893H1368V912H1299V842Z"/>
  </g>
  <defs>
    <radialGradient id="sparkle" cx="0" cy="0" r="1" gradientUnits="userSpaceOnUse" gradientTransform="translate(756 241) rotate(90) scale(66)">
      <stop stop-color="#F4F4F4"/>
      <stop offset="1" stop-color="#A9A9A9"/>
    </radialGradient>
  </defs>
</svg>
