<svg xmlns="http://www.w3.org/2000/svg" width="180" height="180" viewBox="0 0 180 180">
  <g fill="#7c6555" fill-opacity=".08">
    <circle cx="14" cy="18" r="1.2"/>
    <circle cx="34" cy="52" r="1"/>
    <circle cx="78" cy="24" r="1.1"/>
    <circle cx="112" cy="36" r="1.3"/>
    <circle cx="146" cy="20" r=".9"/>
    <circle cx="166" cy="60" r="1.1"/>
    <circle cx="24" cy="96" r="1.2"/>
    <circle cx="58" cy="82" r=".9"/>
    <circle cx="92" cy="114" r="1.3"/>
    <circle cx="128" cy="88" r="1"/>
    <circle cx="152" cy="124" r="1.2"/>
    <circle cx="36" cy="144" r="1"/>
    <circle cx="68" cy="154" r="1.1"/>
    <circle cx="102" cy="146" r=".9"/>
    <circle cx="138" cy="162" r="1.2"/>
    <circle cx="170" cy="150" r="1"/>
    <rect x="48" y="16" width="1.6" height="1.6" rx=".6"/>
    <rect x="120" y="14" width="1.4" height="1.4" rx=".5"/>
    <rect x="154" y="44" width="1.5" height="1.5" rx=".5"/>
    <rect x="12" y="66" width="1.3" height="1.3" rx=".4"/>
    <rect x="86" y="72" width="1.5" height="1.5" rx=".5"/>
    <rect x="144" y="94" width="1.3" height="1.3" rx=".4"/>
    <rect x="48" y="110" width="1.6" height="1.6" rx=".6"/>
    <rect x="6" y="142" width="1.4" height="1.4" rx=".5"/>
    <rect x="120" y="134" width="1.5" height="1.5" rx=".5"/>
    <rect x="86" y="170" width="1.3" height="1.3" rx=".4"/>
  </g>
</svg>
