<svg xmlns="http://www.w3.org/2000/svg" viewBox="0 0 800 500" role="img" aria-labelledby="title desc">
  <title id="title">חדר מסודר עם מצעים נקיים</title>
  <desc id="desc">איור של חדר שינה מסודר עם מיטה, מנורה ושידה.</desc>
  <defs>
    <linearGradient id="bg" x1="0" y1="0" x2="1" y2="1">
      <stop offset="0%" stop-color="#f8efe5"/>
      <stop offset="100%" stop-color="#f1e7dc"/>
    </linearGradient>
  </defs>
  <rect width="800" height="500" fill="url(#bg)"/>
  <circle cx="126" cy="90" r="70" fill="#edd7c3" opacity="0.55"/>
  <circle cx="698" cy="98" r="56" fill="#d6e1d2" opacity="0.48"/>
  <rect y="356" width="800" height="144" fill="#d6af89"/>
  <rect x="170" y="170" width="430" height="136" rx="28" fill="#f7f2eb" stroke="#dccdbd"/>
  <rect x="192" y="142" width="148" height="58" rx="22" fill="#d9c2aa"/>
  <rect x="354" y="142" width="148" height="58" rx="22" fill="#d9c2aa"/>
  <rect x="188" y="198" width="394" height="94" rx="24" fill="#fbf7f1"/>
  <path d="M228 242c30 22 72 20 98 0 28-22 72-22 102 0 32 22 74 22 106 0" fill="none" stroke="#dfece7" stroke-width="18" stroke-linecap="round"/>
  <rect x="620" y="188" width="72" height="118" rx="18" fill="#9cb697"/>
  <rect x="640" y="144" width="32" height="52" rx="16" fill="#c8dbbf"/>
  <path d="M656 122c28 0 28 18 28 26h-56c0-8 0-26 28-26Z" fill="#f7ead7"/>
  <rect x="116" y="210" width="74" height="96" rx="18" fill="#eadccb"/>
  <rect x="128" y="226" width="50" height="10" rx="5" fill="#d4baa1"/>
  <rect x="128" y="246" width="50" height="10" rx="5" fill="#d4baa1"/>
  <ellipse cx="398" cy="402" rx="200" ry="30" fill="#f0e6db"/>
  <circle cx="626" cy="118" r="6" fill="#fffdf9"/>
  <circle cx="654" cy="94" r="5" fill="#fffdf9"/>
  <circle cx="680" cy="124" r="4" fill="#fffdf9"/>
</svg>
