<svg xmlns="http://www.w3.org/2000/svg" viewBox="0 0 800 500" role="img" aria-labelledby="title desc">
  <title id="title">חלונות ורצפה נקיים</title>
  <desc id="desc">איור של חלון גדול עם אור, וילון ורצפה מבריקה.</desc>
  <defs>
    <linearGradient id="bg" x1="0" y1="0" x2="1" y2="1">
      <stop offset="0%" stop-color="#f8eee4"/>
      <stop offset="100%" stop-color="#f4eadf"/>
    </linearGradient>
    <linearGradient id="glass" x1="0" y1="0" x2="0" y2="1">
      <stop offset="0%" stop-color="#d9ebe8"/>
      <stop offset="100%" stop-color="#bcd7d1"/>
    </linearGradient>
  </defs>
  <rect width="800" height="500" fill="url(#bg)"/>
  <circle cx="122" cy="84" r="66" fill="#f0d7c2" opacity="0.6"/>
  <circle cx="684" cy="88" r="54" fill="#d4e2d0" opacity="0.45"/>
  <rect y="350" width="800" height="150" fill="#d5b08e"/>
  <rect x="168" y="72" width="464" height="254" rx="28" fill="#fcf8f2" stroke="#d8c6b3" stroke-width="4"/>
  <rect x="200" y="104" width="400" height="190" rx="18" fill="url(#glass)"/>
  <path d="M400 104v190M200 199h400" stroke="#fcf8f2" stroke-width="10" opacity="0.95"/>
  <path d="M168 86c-40 24-62 64-66 126" fill="none" stroke="#efe5d7" stroke-width="26" stroke-linecap="round"/>
  <path d="M632 86c40 24 62 64 66 126" fill="none" stroke="#efe5d7" stroke-width="26" stroke-linecap="round"/>
  <path d="M214 374h372" stroke="#f8f3ec" stroke-width="16" stroke-linecap="round"/>
  <path d="M240 410h322" stroke="#f5eee7" stroke-width="12" stroke-linecap="round" opacity="0.8"/>
  <path d="M514 160l14 26 28 6-22 18 4 30-24-14-24 14 4-30-22-18 28-6 14-26Z" fill="#fff7e8" opacity="0.92"/>
  <circle cx="640" cy="122" r="6" fill="#fffdf9"/>
  <circle cx="666" cy="96" r="5" fill="#fffdf9"/>
  <circle cx="694" cy="126" r="4" fill="#fffdf9"/>
</svg>
