<svg xmlns="http://www.w3.org/2000/svg" viewBox="0 0 800 500" role="img" aria-labelledby="title desc">
  <title id="title">סלון נקי ומסודר</title>
  <desc id="desc">איור של סלון מואר עם ספה, חלון וצמח.</desc>
  <defs>
    <linearGradient id="bg" x1="0" y1="0" x2="1" y2="1">
      <stop offset="0%" stop-color="#f7ecde"/>
      <stop offset="100%" stop-color="#efe1d3"/>
    </linearGradient>
    <linearGradient id="floor" x1="0" y1="0" x2="1" y2="0">
      <stop offset="0%" stop-color="#dbc0a2"/>
      <stop offset="100%" stop-color="#cda986"/>
    </linearGradient>
  </defs>
  <rect width="800" height="500" fill="url(#bg)"/>
  <circle cx="130" cy="90" r="72" fill="#f2d5b9" opacity="0.6"/>
  <circle cx="700" cy="105" r="60" fill="#c9d8c7" opacity="0.55"/>
  <rect y="340" width="800" height="160" fill="url(#floor)"/>
  <rect x="112" y="98" width="154" height="138" rx="18" fill="#fcf8f1" stroke="#d8c6b1"/>
  <rect x="132" y="118" width="114" height="98" rx="10" fill="#dfece7"/>
  <path d="M188 118v98M132 170h114" stroke="#fcf8f1" stroke-width="8" opacity="0.9"/>
  <rect x="276" y="236" width="274" height="92" rx="32" fill="#8f705c"/>
  <rect x="298" y="210" width="110" height="42" rx="21" fill="#a98873"/>
  <rect x="418" y="210" width="110" height="42" rx="21" fill="#a98873"/>
  <rect x="260" y="320" width="18" height="72" rx="9" fill="#6f5546"/>
  <rect x="532" y="320" width="18" height="72" rx="9" fill="#6f5546"/>
  <rect x="334" y="284" width="160" height="26" rx="13" fill="#f5eee7" opacity="0.95"/>
  <rect x="582" y="270" width="68" height="104" rx="16" fill="#71886d"/>
  <rect x="602" y="242" width="28" height="44" rx="14" fill="#8fab88"/>
  <path d="M616 226c18-28 58-36 72 0-26 18-48 20-72 0Z" fill="#9cbc96"/>
  <ellipse cx="434" cy="412" rx="184" ry="34" fill="#efe6db"/>
  <rect x="326" y="386" width="196" height="44" rx="22" fill="#f8f2ea"/>
  <circle cx="634" cy="120" r="6" fill="#fffdf9"/>
  <circle cx="662" cy="96" r="5" fill="#fffdf9"/>
  <circle cx="686" cy="130" r="4" fill="#fffdf9"/>
</svg>
